<svg xmlns="http://www.w3.org/2000/svg" viewBox="0 0 178.23 290.55"><defs><style>.cls-1{fill:#ffed6c;}</style></defs><g id="Layer_2" data-name="Layer 2"><g id="Layer_1-2" data-name="Layer 1"><path class="cls-1" d="M123.29,17.77c-4.8,27-9.79,56.25-15.26,85.43-5.71,30.46-3,34.4,24.83,34.41,9.7,0,19.4-.05,29.1,0,5.65,0,12-1,15.06,6.09,3.3,7.62-.7,13.06-5.11,18.61-14.36,18.06-28.3,36.53-42.61,54.65q-26,32.91-52.35,65.45c-4.28,5.28-9.76,10.37-16.4,7.08-8-4-6.49-13-5-20.25,4.32-21.7,9.49-43.19,14.2-64.8,4-18.54,0-24.19-17.4-24.54-11.41-.24-22.82.05-34.23-.09-6.12-.08-13.28,1.75-16.74-6.14-3.54-8.07.65-14.86,4.75-21.06q30.45-46,61.13-91.83C79.12,43,91.24,25.29,102.9,7.25c3.87-6,8.29-8.92,14.48-6.27C123.17,3.46,123.67,9.4,123.29,17.77Z"/></g></g></svg>